<svg xmlns="http://www.w3.org/2000/svg" width="150" height="40" viewBox="0 0 150 40">
    <!-- Ikon Keranjang Belanja yang Solid -->
    <g transform="scale(1.2) translate(0, 5)">
        <path d="M11 9H2.5L1 2H22.5L24 9H11ZM11 9H2.5V23H24V9H11ZM9.5 25C9.5 25.8284 8.82843 26.5 8 26.5C7.17157 26.5 6.5 25.8284 6.5 25C6.5 24.1716 7.17157 23.5 8 23.5C8.82843 23.5 9.5 24.1716 9.5 25ZM20.5 25C20.5 25.8284 19.8284 26.5 19 26.5C18.1716 26.5 17.5 25.8284 17.5 25C17.5 24.1716 18.1716 23.5 19 23.5C19.8284 23.5 20.5 24.1716 20.5 25Z" fill="#6f42c1"/>
    </g>

    <!-- Teks "KasirKu" -->
    <text x="45" y="27" font-family="Arial, sans-serif" font-size="24" font-weight="bold" fill="#6f42c1">KasirKu</text>
</svg>
